<?xml version="1.0" encoding="utf-8"?>
<!-- Generator: Adobe Illustrator 24.2.0, SVG Export Plug-In . SVG Version: 6.00 Build 0)  -->
<svg version="1.1" id="Layer_1" xmlns="http://www.w3.org/2000/svg" xmlns:xlink="http://www.w3.org/1999/xlink" x="0px" y="0px"
	 viewBox="0 0 230 230" style="enable-background:new 0 0 230 230;" xml:space="preserve">
<style type="text/css">
	.st0{fill:#FFFFFF;}
	.st1{fill:#9B4A9C;}
	.st2{fill:#1A4989;}
	.st3{fill:url(#SVGID_1_);}
	.st4{fill:#8BD6F7;}
	.st5{fill:url(#SVGID_2_);}
	.st6{fill:url(#SVGID_3_);}
	.st7{fill:url(#SVGID_4_);}
	.st8{fill:#86286B;}
	.st9{fill:url(#SVGID_5_);}
	.st10{fill:url(#SVGID_6_);}
	.st11{fill:url(#SVGID_7_);}
	.st12{fill:url(#SVGID_8_);}
	.st13{fill:url(#SVGID_9_);}
	.st14{fill:url(#SVGID_10_);}
	.st15{fill:url(#SVGID_11_);}
</style>
<path class="st0" d="M197.4,230H32.6C14.6,230,0,215.4,0,197.4V32.6C0,14.6,14.6,0,32.6,0h164.8c18,0,32.6,14.6,32.6,32.6v164.8
	C230,215.4,215.4,230,197.4,230z"/>
<path class="st1" d="M106.1,180l8.6,14.3l8.6-14.3c-2.8,0.4-5.7,0.6-8.6,0.6C111.8,180.6,108.9,180.4,106.1,180z"/>
<g>
	<path class="st2" d="M114.7,167.9c16.6,0.4,30.2,4.9,32.4,10.7c0-7-14.4-12.8-32.4-13.2c-18.3-0.4-32.5,4.2-32.9,11.6
		C84.3,171.1,97.7,167.5,114.7,167.9z"/>
	
		<linearGradient id="SVGID_1_" gradientUnits="userSpaceOnUse" x1="87.862" y1="-445.4478" x2="161.9029" y2="-445.4478" gradientTransform="matrix(0.9998 2.230000e-02 -2.230000e-02 0.9998 -20.1108 625.8636)">
		<stop  offset="0" style="stop-color:#56B0E0"/>
		<stop  offset="0.2366" style="stop-color:#2D71B7"/>
		<stop  offset="0.6667" style="stop-color:#3475B9"/>
		<stop  offset="1" style="stop-color:#2E8BCA"/>
	</linearGradient>
	<path class="st3" d="M137.3,169.4c6.1,2.4,9.9,5.7,9.8,9.3c-0.2,7.1-14.9,12.8-33,12.4c-18-0.4-32.5-6.8-32.4-13.9
		c0.1-3.4,3.1-6.3,8-8.3c-7.4,2.8-12,7-12.1,12.1c-0.2,8.9,15.9,16.2,36.3,16.6c20.4,0.5,37.5-6.1,37.7-15
		C151.8,177.5,146.2,172.6,137.3,169.4z"/>
	<path class="st4" d="M114.8,165.5c-18.5-0.4-32.8,4.3-33,11.8c-0.2,7.1,14.3,13.5,32.4,13.9c18,0.4,32.8-5.3,33-12.4
		C147.3,171.7,132.8,165.9,114.8,165.5z M114.2,190.2c-17.7-0.4-31.8-6.4-31.7-13.1c0.2-7.1,14.1-11.5,32.2-11.1
		c17.7,0.4,31.8,5.9,31.7,12.5C146.3,185.3,131.9,190.6,114.2,190.2z"/>
	
		<linearGradient id="SVGID_2_" gradientUnits="userSpaceOnUse" x1="91.8977" y1="-450.4571" x2="157.2538" y2="-450.4571" gradientTransform="matrix(0.9998 2.230000e-02 -2.230000e-02 0.9998 -20.1108 625.8636)">
		<stop  offset="0" style="stop-color:#DCF2FD"/>
		<stop  offset="0.1935" style="stop-color:#1676BB"/>
		<stop  offset="0.5" style="stop-color:#2A6CB5"/>
		<stop  offset="0.8172" style="stop-color:#3B8BCA"/>
		<stop  offset="0.9946" style="stop-color:#67BDEA"/>
	</linearGradient>
	<path class="st5" d="M114.8,165.4c-18.5-0.4-32.8,4.3-33,11.8c-0.2,7.1,14.3,13.5,32.4,13.9c18,0.4,32.8-5.3,33-12.4
		C147.3,171.6,132.8,165.8,114.8,165.4z M114.2,190.1c-17.7-0.4-31.8-6.4-31.7-13.1c0.2-7.1,14.1-11.5,32.2-11.1
		c17.7,0.4,31.8,5.9,31.7,12.5C146.3,185.1,131.9,190.5,114.2,190.1z"/>
	
		<linearGradient id="SVGID_3_" gradientUnits="userSpaceOnUse" x1="111.7273" y1="-437.3693" x2="156.1906" y2="-437.3693" gradientTransform="matrix(0.9998 2.230000e-02 -2.230000e-02 0.9998 -20.1108 625.8636)">
		<stop  offset="0" style="stop-color:#077CC1"/>
		<stop  offset="0.5" style="stop-color:#3681C3"/>
		<stop  offset="1" style="stop-color:#3B8BCA"/>
	</linearGradient>
	<path class="st6" d="M114.2,191.2c-4.6-0.1-8.9-0.6-12.8-1.4c1.3,2.7,3,5.2,5,7.3c2.5,0.3,5,0.4,7.6,0.5c13.2,0.3,25-2.3,31.8-6.7
		c-1-1.9-2.3-3.8-3.8-5.4C136.1,189.2,125.8,191.5,114.2,191.2z"/>
	
		<linearGradient id="SVGID_4_" gradientUnits="userSpaceOnUse" x1="89.252" y1="-451.812" x2="103.4081" y2="-445.5093" gradientTransform="matrix(0.9998 2.230000e-02 -2.230000e-02 0.9998 -20.1108 625.8636)">
		<stop  offset="0" style="stop-color:#CEEBFB"/>
		<stop  offset="0.2742" style="stop-color:#85BCE6"/>
		<stop  offset="1" style="stop-color:#2690CF"/>
	</linearGradient>
	<path class="st7" d="M81.8,177.4C81.8,177.4,81.8,177.3,81.8,177.4c0-0.1,0-0.1,0-0.1c0.1-3.4,3.1-6.3,8-8.3
		c-7.4,2.8-12,7-12.1,12.1c-0.1,4.5,4,8.7,10.8,11.7c0.1-2.3,0.5-4.5,1-6.7C84.7,183.6,81.7,180.6,81.8,177.4z"/>
</g>
<g>
	<g>
		<path class="st8" d="M87.8,82.5v60.3c5.7,2.5,11.9,4.1,18.3,4.9V77.5C99.6,78.3,93.5,80,87.8,82.5z"/>
		<path class="st1" d="M141.7,82.5c-5.7-2.5-11.9-4.1-18.3-4.9v70.1c6.4-0.8,12.5-2.5,18.3-5V82.5z"/>
	</g>
	<linearGradient id="SVGID_5_" gradientUnits="userSpaceOnUse" x1="105.4563" y1="59.8471" x2="142.5441" y2="59.8471">
		<stop  offset="0" style="stop-color:#86286B"/>
		<stop  offset="1" style="stop-color:#9B4A9C"/>
	</linearGradient>
	<path class="st9" d="M114.7,42.2c-9.6,0-18.7,2-26.9,5.5v29.8C96,74,105.1,72,114.7,72c9.6,0,18.7,2,27,5.5V47.7
		C133.4,44.1,124.3,42.2,114.7,42.2z"/>
	<g>
		<path class="st8" d="M198.6,49.2l-83.9-34.9L62.4,36.3v18.4v2.5v4.2c-1.1,0.5-1.8,1.6-1.8,2.8c0,1.2,0.7,2.3,1.8,2.8v1.1h-1.8
			l-1,12c-0.1,1.2,0.9,2.3,2.1,2.3h4.2c1.2,0,2.2-1.1,2.1-2.3l-1-12h-1.8V67c1.1-0.5,1.8-1.6,1.8-2.8c0-1.2-0.7-2.3-1.8-2.8v-3.5
			l17.6,4.5V46c0,0,8.8-8.8,32-8.8c23.8,0,32.3,8.8,32.3,8.8v16.3L198.6,49.2z"/>
		<polygon class="st8" points="57.5,55.9 57.5,38.3 31.4,49.2 		"/>
	</g>
</g>
<linearGradient id="SVGID_6_" gradientUnits="userSpaceOnUse" x1="88.1464" y1="161.6526" x2="137.9199" y2="161.6526">
	<stop  offset="0" style="stop-color:#86286B"/>
	<stop  offset="1" style="stop-color:#9B4A9C"/>
</linearGradient>
<path class="st10" d="M114.7,153.2c-9.6,0-18.7-2-26.9-5.5l15.1,26.9c3.9,0.7,7.8,1,11.9,1c4.1,0,8-0.4,11.9-1l15.1-26.9
	C133.4,151.2,124.3,153.2,114.7,153.2z"/>
<g>
	<path class="st2" d="M114.7,101.7c31.9,0.7,58.1,9.4,62.3,20.5c0-13.5-27.7-24.5-62.2-25.3c-35.1-0.8-62.3,8-63.2,22.2
		C56.3,107.7,82.1,100.9,114.7,101.7z"/>
	
		<linearGradient id="SVGID_7_" gradientUnits="userSpaceOnUse" x1="58.6206" y1="-228.8764" x2="200.7474" y2="-228.8764" gradientTransform="matrix(0.9998 2.230000e-02 -2.230000e-02 0.9998 -20.1107 357.1128)">
		<stop  offset="0" style="stop-color:#56B0E0"/>
		<stop  offset="0.2366" style="stop-color:#2D71B7"/>
		<stop  offset="0.6667" style="stop-color:#3475B9"/>
		<stop  offset="1" style="stop-color:#2E8BCA"/>
	</linearGradient>
	<path class="st11" d="M158.1,104.5c11.8,4.6,19.1,10.9,18.9,17.9c-0.3,13.6-28.6,24.6-63.3,23.8c-34.6-0.8-62.5-13-62.2-26.6
		c0.1-6.6,5.9-12,15.4-15.9c-14.3,5.3-23.1,13.5-23.3,23.2c-0.4,17.1,30.5,31.1,69.8,31.9c39.2,0.9,71.9-11.7,72.3-28.8
		C186,120,175.1,110.7,158.1,104.5z"/>
	<path class="st4" d="M114.8,97.1c-35.5-0.8-62.9,8.2-63.3,22.7c-0.3,13.6,27.5,25.8,62.2,26.6c34.6,0.8,63-10.2,63.3-23.8
		C177.3,109,149.5,97.9,114.8,97.1z M113.8,144.5c-33.9-0.8-61.1-12.3-60.8-25.1c0.3-13.7,27.1-22.1,61.9-21.3
		c33.9,0.8,61.1,11.2,60.9,24.1C175.4,134.9,147.7,145.2,113.8,144.5z"/>
	
		<linearGradient id="SVGID_8_" gradientUnits="userSpaceOnUse" x1="66.3674" y1="-238.4922" x2="191.8232" y2="-238.4922" gradientTransform="matrix(0.9998 2.230000e-02 -2.230000e-02 0.9998 -20.1107 357.1128)">
		<stop  offset="0" style="stop-color:#DCF2FD"/>
		<stop  offset="0.1935" style="stop-color:#1676BB"/>
		<stop  offset="0.5" style="stop-color:#2A6CB5"/>
		<stop  offset="0.8172" style="stop-color:#3B8BCA"/>
		<stop  offset="0.9946" style="stop-color:#67BDEA"/>
	</linearGradient>
	<path class="st12" d="M114.8,96.9c-35.5-0.8-62.9,8.2-63.3,22.7c-0.3,13.6,27.5,25.8,62.2,26.6c34.6,0.8,63-10.2,63.3-23.8
		C177.3,108.8,149.5,97.7,114.8,96.9z M113.8,144.3c-33.9-0.8-61.1-12.3-60.8-25.1c0.3-13.7,27.1-22.1,61.9-21.3
		c33.9,0.8,61.1,11.2,60.9,24.1C175.4,134.7,147.7,145,113.8,144.3z"/>
	
		<linearGradient id="SVGID_9_" gradientUnits="userSpaceOnUse" x1="104.4317" y1="-213.3692" x2="189.7822" y2="-213.3692" gradientTransform="matrix(0.9998 2.230000e-02 -2.230000e-02 0.9998 -20.1107 357.1128)">
		<stop  offset="0" style="stop-color:#077CC1"/>
		<stop  offset="0.5" style="stop-color:#3681C3"/>
		<stop  offset="1" style="stop-color:#3B8BCA"/>
	</linearGradient>
	<path class="st13" d="M113.7,146.4c-8.8-0.2-17.1-1.1-24.6-2.6c2.4,5.3,5.7,10,9.7,14.1c4.7,0.5,9.6,0.9,14.6,1
		c25.4,0.6,48.1-4.5,61-12.8c-2-3.7-4.5-7.2-7.4-10.3C155.8,142.5,136.1,146.9,113.7,146.4z"/>
	
		<linearGradient id="SVGID_10_" gradientUnits="userSpaceOnUse" x1="61.2888" y1="-241.0929" x2="88.4624" y2="-228.9945" gradientTransform="matrix(0.9998 2.230000e-02 -2.230000e-02 0.9998 -20.1107 357.1128)">
		<stop  offset="0" style="stop-color:#CEEBFB"/>
		<stop  offset="0.2742" style="stop-color:#85BCE6"/>
		<stop  offset="1" style="stop-color:#2690CF"/>
	</linearGradient>
	<path class="st14" d="M51.6,119.8c0,0,0-0.1,0-0.1c0,0,0-0.1,0-0.1c0.1-6.6,5.9-12,15.4-15.9c-14.3,5.3-23.1,13.5-23.3,23.2
		c-0.2,8.7,7.7,16.6,20.8,22.4c0.2-4.4,0.9-8.7,1.9-12.8C57,131.8,51.4,125.9,51.6,119.8z"/>
</g>
<g>
	<path class="st8" d="M87.8,81.9v53.3c5.7,2.2,11.9,3.7,18.3,4.4V77.5C99.6,78.3,93.5,79.7,87.8,81.9z"/>
	<path class="st1" d="M141.7,81.9c-5.7-2.2-11.9-3.7-18.3-4.4v62.1c6.4-0.7,12.5-2.2,18.3-4.4V81.9z"/>
</g>
<radialGradient id="SVGID_11_" cx="114.7117" cy="211.1956" r="6.9324" gradientUnits="userSpaceOnUse">
	<stop  offset="0" style="stop-color:#56B0E0"/>
	<stop  offset="1" style="stop-color:#2D71B7"/>
</radialGradient>
<circle class="st15" cx="114.7" cy="211.2" r="6.9"/>
</svg>
