<?xml version="1.0" encoding="utf-8"?>
<!-- Generator: Adobe Illustrator 24.2.0, SVG Export Plug-In . SVG Version: 6.00 Build 0)  -->
<svg version="1.1" id="Layer_1" xmlns="http://www.w3.org/2000/svg" xmlns:xlink="http://www.w3.org/1999/xlink" x="0px" y="0px"
	 viewBox="0 0 46.1 32.2" style="enable-background:new 0 0 46.1 32.2;" xml:space="preserve">
<style type="text/css">
	.st0{fill:#3459A0;}
</style>
<path class="st0" d="M45.6,3.3c-0.8-1.2-2.4-1.7-3.9-1.6s-3.2,1.2-4.5,2C35,5.2,33,4.8,30.9,3.9c-1.2-0.5-1.3-1-2.3-1.7
	c-4.4-3.3-8.2-2.3-10.9-0.1c-1,0.8-1.3,1.3-2.5,1.8c-2.1,0.9-4.1,1.3-6.4-0.2c-1.2-0.8-3-1.9-4.5-2C2.9,1.6,1.3,2,0.5,3.3
	c-0.8,1.2-0.6,2.8,0.1,4c0.7,1.2,1.7,2.2,2.8,3.1l0,0.1c0,0.2,0.1,0.3,0.1,0.5c0,0,0,0,0,0c-0.1,0.5,0,1.1,0.3,1.5
	C4,12.8,4.3,13,4.6,13.3c0.8,0.8,1.9,1.5,3.1,1.6c1.2,0.1,2.4-0.4,3-1.3c0.6-0.9,0.6-2.2,0-3.1C10.1,9.4,9.1,8.8,8,8.6
	c-0.5-0.1-1.2-0.1-1.9,0c-0.3-0.1-0.7-0.2-1-0.1C4.4,8.1,3.6,7.7,3,7C2.4,6.3,2,5.3,2.5,4.5c0.6-0.8,1.8-1,2.8-0.7
	c1,0.3,2.7,1.4,3.6,1.8c2.1,1.1,4,1,6.1,0.3l0,0.1c0,0.6,0.1,1.1,0.2,1.7C15.3,8.9,15.5,10,16,11c0.6,1.3,1.6,2.4,2.4,3.7
	c0.8,1.2,1.3,2.8,0.7,4.2c-0.6,1.4-0.2,3,0.3,4.3c0.6,1.4,1.4,2.7,1.7,4.1c0.3,1.4,0.2,2.9,0.1,4.3c0,0,0.3,0.6,1.6,0.6
	c1.3,0,2-0.6,2-0.6c-0.1-1.4-0.2-2.9,0.1-4.3c0.3-1.5,1.2-2.8,1.7-4.1c0.6-1.4,0.9-3,0.3-4.3c-0.6-1.3-0.1-2.9,0.7-4.2
	c0.8-1.2,1.8-2.3,2.4-3.7c0.5-1,0.6-2.1,0.8-3.2c0.1-0.6,0.2-1.1,0.2-1.7l0-0.1c2.1,0.6,4,0.8,6.1-0.3c0.9-0.5,2.6-1.5,3.6-1.8
	c1-0.3,2.2-0.2,2.8,0.7c0.5,0.7,0.1,1.8-0.5,2.5c-0.6,0.7-1.4,1.1-2.2,1.4c-0.1,0-0.3,0-0.4,0c-0.2,0-0.5,0-0.6,0.1
	c-0.6-0.1-1.3-0.1-1.8,0.1C37,8.8,36,9.4,35.4,10.4c-0.6,0.9-0.6,2.2,0,3.1c0.6,1,1.9,1.5,3,1.3c1.2-0.1,2.2-0.7,3.1-1.6
	c0.3-0.3,0.5-0.5,0.7-0.9c0.2-0.3,0.2-0.6,0.3-0.9c0,0,0,0,0,0c0.2,0,0.3-0.2,0.3-0.3c0-0.2,0-0.3-0.1-0.5l0-0.4
	c1.1-0.9,2.1-1.9,2.8-3.1C46.2,6,46.4,4.4,45.6,3.3z"/>
</svg>
