<?xml version="1.0" encoding="utf-8"?>
<!-- Generator: Adobe Illustrator 24.2.0, SVG Export Plug-In . SVG Version: 6.00 Build 0)  -->
<svg version="1.1" id="Layer_1" xmlns="http://www.w3.org/2000/svg" xmlns:xlink="http://www.w3.org/1999/xlink" x="0px" y="0px"
	 viewBox="0 0 32.2 32.7" style="enable-background:new 0 0 32.2 32.7;" xml:space="preserve">
<style type="text/css">
	.st0{fill:#3459A0;}
</style>
<path class="st0" d="M30.7,17.5c-0.6,0-1.3,0.2-1.9,0.2c-0.6,0-1-0.3-1.1-0.9c-0.1-0.6,0-1.1,0.5-1.4c0.5-0.3,1.1-0.2,1.7-0.1
	c0.2,0,0.3,0,0.5,0.1c0.7,0.1,1.4-0.1,1.7-0.8c0.3-0.6,0.2-1.2-0.3-1.7c-0.6-0.6-1.2-0.5-1.9-0.2c-0.3,0.2-0.7,0.3-1,0.5
	c-0.9,0.4-1.6,0.3-1.9-0.6c-0.4-1,0.2-1.5,1.1-1.7c0.5-0.1,0.9-0.2,1.4-0.3c0.7-0.2,1-0.7,1.1-1.4c0-0.6-0.3-1-0.8-1.3
	c-0.6-0.4-1.2-0.3-1.8,0.2c-0.4,0.4-0.8,0.9-1.2,1.2C26.2,9.6,25.5,9.6,25,9c-0.5-0.6-0.5-1.3,0.1-1.8c0.4-0.4,1-0.6,1.4-1
	c0.6-0.4,0.7-1,0.5-1.7c-0.2-0.5-0.5-0.9-1.1-1c-0.7-0.1-1.3,0.1-1.6,0.8c-0.3,0.5-0.4,1.1-0.7,1.6c-0.4,0.7-1,1-1.7,0.5
	c-0.7-0.4-0.8-1.1-0.4-1.8c0.2-0.5,0.6-0.8,0.9-1.3c0.4-0.6,0.5-1.2,0.1-1.8c-0.4-0.6-1-0.8-1.7-0.6c-0.7,0.2-1,0.7-1.1,1.4
	c0,0.6-0.1,1.2-0.2,1.7c-0.2,0.7-0.7,1.1-1.4,0.9c-0.7-0.1-1.1-0.7-1-1.4c0.1-0.5,0.3-1,0.4-1.5c0.2-0.7,0.1-1.4-0.5-1.8
	c-0.5-0.4-1.1-0.4-1.6,0c-0.7,0.4-0.8,1.1-0.6,1.8c0.1,0.5,0.3,1,0.4,1.5c0.1,0.8-0.3,1.3-1.1,1.5c-0.7,0.1-1.2-0.3-1.4-1
	c-0.1-0.6-0.1-1.1-0.2-1.7c-0.1-0.7-0.4-1.2-1.1-1.3c-0.6-0.1-1.2,0-1.5,0.5c-0.4,0.6-0.4,1.2,0,1.8c0.3,0.4,0.7,0.8,0.9,1.3
	c0.4,0.7,0.3,1.4-0.5,1.9c-0.8,0.4-1.3,0-1.7-0.6C8.3,5.4,8.2,4.9,8,4.5c-0.3-0.7-0.8-1-1.6-1c-0.6,0.1-1,0.4-1.2,0.9
	C5,5.1,5.1,5.8,5.8,6.2c0.3,0.2,0.7,0.5,1.1,0.7c0.7,0.5,1.1,1.2,0.5,2c-0.6,0.8-1.4,0.6-2,0C5,8.6,4.8,8.3,4.5,8.1
	C4,7.5,3.5,7.2,2.7,7.5c-0.6,0.3-1,0.8-1,1.5c0.1,0.9,0.7,1.3,1.5,1.4c0.4,0.1,0.8,0.2,1.2,0.3c0.7,0.3,1.2,0.8,0.9,1.6
	c-0.3,0.8-0.9,1.1-1.7,0.8c-0.5-0.2-1-0.5-1.6-0.7c-0.6-0.2-1.1-0.1-1.6,0.4c-0.4,0.5-0.5,1-0.3,1.6c0.2,0.6,0.7,0.9,1.4,0.9
	c0.5,0,0.9-0.1,1.4-0.1c0.9-0.1,1.6,0.2,1.7,1.2c0,1.1-0.7,1.4-1.7,1.3c-0.4,0-0.8-0.1-1.3-0.1c-0.7,0-1.2,0.2-1.5,0.9
	c-0.2,0.5-0.2,1,0.2,1.5c0.5,0.6,1.1,0.7,1.7,0.4c0.5-0.2,1-0.5,1.6-0.7c0.8-0.3,1.4,0,1.7,0.7c0.3,0.8,0,1.3-0.8,1.6
	c-0.5,0.2-1.1,0.3-1.7,0.4c-0.7,0.2-1.1,0.7-1.1,1.4c0,0.6,0.3,1.1,0.9,1.4c0.6,0.3,1.1,0.2,1.6-0.2C4.7,24.5,5,24,5.4,23.6
	c0.6-0.6,1.3-0.5,1.8,0.1c0.6,0.6,0.5,1.3-0.1,1.8c-0.3,0.3-0.8,0.5-1.2,0.8c-0.6,0.4-1,0.9-0.8,1.7c0.1,0.7,0.6,1.1,1.3,1.2
	c0.8,0.1,1.3-0.3,1.6-1c0.2-0.4,0.3-0.8,0.5-1.2c0.4-0.7,1-1.2,1.8-0.7c0.9,0.5,0.8,1.3,0.3,2c-0.2,0.3-0.4,0.6-0.7,0.9
	c-0.5,0.6-0.6,1.2-0.2,1.9c0.4,0.6,1,0.8,1.7,0.6c0.8-0.2,1.1-0.8,1.1-1.5c0-0.5,0-1,0.1-1.4c0.2-0.8,0.7-1.3,1.5-1.1
	c0.8,0.2,1.1,0.7,1,1.5c-0.1,0.5-0.3,1-0.4,1.5c-0.2,0.7,0,1.3,0.6,1.7c0.6,0.4,1.2,0.4,1.8,0c0.6-0.4,0.7-1,0.5-1.7
	c-0.1-0.5-0.3-0.9-0.4-1.4c-0.2-0.9,0.2-1.5,1-1.6c0.8-0.2,1.3,0.4,1.4,1.1c0.1,0.5,0.1,1,0.1,1.6c0.1,0.7,0.4,1.2,1.1,1.4
	c0.6,0.1,1.2,0,1.5-0.5c0.4-0.6,0.4-1.2,0-1.8c-0.3-0.5-0.7-0.9-1-1.4c-0.4-0.7-0.2-1.3,0.5-1.7c0.7-0.4,1.3-0.1,1.6,0.5
	c0.3,0.5,0.5,1.1,0.7,1.6c0.3,0.6,0.9,0.9,1.6,0.8c0.7-0.1,1.1-0.4,1.2-1.1c0.2-0.7,0-1.3-0.6-1.7c-0.4-0.3-0.9-0.6-1.3-0.9
	c-0.6-0.5-0.8-1.1-0.2-1.8c0.6-0.7,1.3-0.7,1.9-0.1c0.4,0.3,0.6,0.7,1,1c0.5,0.5,1.1,0.8,1.8,0.4c0.6-0.3,0.9-0.8,0.8-1.4
	c-0.1-0.8-0.6-1.2-1.3-1.4c-0.5-0.1-0.9-0.2-1.4-0.3c-0.8-0.2-1.2-0.8-0.9-1.6c0.3-0.8,0.9-1.2,1.8-0.8c0.5,0.2,1,0.5,1.6,0.7
	c0.6,0.2,1.2,0.1,1.6-0.4c0.5-0.5,0.5-1.1,0.2-1.6C31.8,17.8,31.4,17.4,30.7,17.5z M12.6,14c-0.7,0-1.2-0.5-1.2-1.2
	c0-0.7,0.5-1.2,1.2-1.2s1.2,0.5,1.2,1.2C13.8,13.5,13.3,14,12.6,14z M18.3,9.5c1,0,1.9,0.8,1.9,1.9c0,1-0.8,1.9-1.9,1.9
	s-1.9-0.8-1.9-1.9C16.4,10.4,17.3,9.5,18.3,9.5z M18.6,21.7c-0.9,0-1.7-0.7-1.7-1.7c0-0.9,0.7-1.7,1.7-1.7s1.7,0.7,1.7,1.7
	C20.2,20.9,19.5,21.7,18.6,21.7z M22.9,16.5c-0.4,0-0.7-0.3-0.7-0.7c0-0.4,0.3-0.7,0.7-0.7c0.4,0,0.7,0.3,0.7,0.7
	C23.6,16.2,23.3,16.5,22.9,16.5z"/>
</svg>
