<?xml version="1.0" encoding="utf-8"?>
<!-- Generator: Adobe Illustrator 24.2.0, SVG Export Plug-In . SVG Version: 6.00 Build 0)  -->
<svg version="1.1" id="Layer_1" xmlns="http://www.w3.org/2000/svg" xmlns:xlink="http://www.w3.org/1999/xlink" x="0px" y="0px"
	 viewBox="0 0 381.6 348.2" style="enable-background:new 0 0 381.6 348.2;" xml:space="preserve">
<style type="text/css">
	.st0{fill:#FFFFFF;}
</style>
<g>
	<g>
		<path class="st0" d="M218.9,66.6V35.1c-8.7-3.7-18.3-5.8-28.4-5.8c-10.1,0-19.7,2.1-28.4,5.8v31.5c8.7-3.7,18.3-5.8,28.4-5.8
			C200.6,60.8,210.2,62.8,218.9,66.6"/>
		<path class="st0" d="M135.3,23.1v19.4v2.6v4.5c-1.1,0.5-1.9,1.7-1.9,3c0,1.3,0.8,2.4,1.9,3v1.2h-1.9l-1.1,12.6
			c-0.1,1.3,0.9,2.4,2.2,2.4h4.4c1.3,0,2.3-1.1,2.2-2.4l-1.1-12.6h-1.9v-1.2c1.1-0.5,1.9-1.7,1.9-3c0-1.3-0.8-2.4-1.9-3v-3.7
			l18.5,4.7V33.3c0,0,9.3-9.2,33.7-9.2c25,0,34,9.2,34,9.2v17.2l54.4-13.8L190.5,0L135.3,23.1z"/>
		<polygon class="st0" points="130.2,25.2 102.6,36.8 130.2,43.8 		"/>
		<path class="st0" d="M236.2,95c0.1,0,0.2,0.1,0.4,0.2c-0.1,0-0.2-0.1-0.2-0.1c-0.5-0.2-1-0.4-1.6-0.6c-0.2-0.1-0.5-0.2-0.8-0.3
			c-0.5-0.2-1.1-0.4-1.6-0.6c-0.3-0.1-0.6-0.2-0.9-0.3c-0.5-0.2-1.1-0.3-1.6-0.5c-0.3-0.1-0.6-0.2-1-0.3c-0.5-0.2-1.1-0.3-1.6-0.5
			c-0.3-0.1-0.7-0.2-1-0.3c-0.5-0.1-1.1-0.3-1.7-0.4c-0.3-0.1-0.7-0.2-1-0.2c-0.6-0.1-1.1-0.3-1.7-0.4c-0.4-0.1-0.7-0.2-1.1-0.2
			c-0.6-0.1-1.1-0.3-1.7-0.4c-0.1,0-0.2,0-0.2,0V71.8v-0.6c-6-2.3-12.5-3.9-19.3-4.6v20.8c-0.3,0-0.5,0-0.8-0.1
			c-0.5,0-1-0.1-1.5-0.1c-0.7,0-1.3-0.1-2-0.1c-0.4,0-0.9,0-1.3-0.1c-1.1,0-2.3-0.1-3.4-0.1c-1.2,0-2.3,0-3.5,0c-0.4,0-0.8,0-1.3,0
			c-0.7,0-1.4,0-2.2,0c-0.5,0-0.9,0-1.4,0c-0.3,0-0.7,0-1,0V66.6c-6.8,0.8-13.2,2.3-19.3,4.6v0.6v16.8c-0.1,0-0.3,0-0.4,0.1
			c-0.5,0.1-1,0.2-1.5,0.2c-0.4,0.1-0.9,0.1-1.3,0.2c-0.5,0.1-1,0.2-1.5,0.3c-0.4,0.1-0.8,0.1-1.2,0.2c-0.5,0.1-1,0.2-1.5,0.3
			c-0.4,0.1-0.8,0.2-1.2,0.2c-0.5,0.1-1,0.2-1.5,0.3c-0.4,0.1-0.8,0.2-1.1,0.3c-0.5,0.1-0.9,0.2-1.4,0.4c-0.4,0.1-0.7,0.2-1.1,0.3
			c-0.5,0.1-0.9,0.3-1.4,0.4c-0.3,0.1-0.7,0.2-1,0.3c-0.5,0.1-0.9,0.3-1.3,0.4c-0.3,0.1-0.6,0.2-0.9,0.3c-0.4,0.2-0.9,0.3-1.3,0.5
			c-0.3,0.1-0.6,0.2-0.9,0.3c-0.4,0.2-0.8,0.3-1.2,0.5c-0.1,0.1-0.3,0.1-0.4,0.2c0.1-0.1,0.2-0.1,0.4-0.2
			c-15,5.6-24.3,14.2-24.5,24.5c0,0.6,0,1.1,0.1,1.7c0,0.2,0.1,0.3,0.1,0.5c0,0.4,0.1,0.8,0.2,1.2c0,0.2,0.1,0.4,0.2,0.6
			c0.1,0.4,0.2,0.7,0.3,1c0.1,0.2,0.2,0.4,0.2,0.6c0.1,0.3,0.2,0.7,0.4,1c0.1,0.2,0.2,0.4,0.3,0.6c0.2,0.3,0.3,0.7,0.5,1
			c0.1,0.2,0.2,0.4,0.4,0.6c0.2,0.3,0.4,0.7,0.6,1c0.1,0.2,0.3,0.4,0.4,0.6c0.2,0.3,0.5,0.6,0.7,1c0.2,0.2,0.3,0.4,0.5,0.6
			c0.3,0.3,0.5,0.6,0.8,0.9c0.2,0.2,0.4,0.4,0.5,0.5c0.3,0.3,0.6,0.6,0.9,0.9c0.2,0.2,0.4,0.3,0.6,0.5c0.3,0.3,0.7,0.6,1.1,0.9
			c0.2,0.2,0.4,0.3,0.6,0.5c0.4,0.3,0.8,0.6,1.2,0.9c0.2,0.2,0.4,0.3,0.7,0.5c0.4,0.3,0.8,0.6,1.3,0.9c0.2,0.2,0.5,0.3,0.7,0.5
			c0.4,0.3,0.9,0.6,1.4,0.8c0.2,0.1,0.5,0.3,0.8,0.4c0.5,0.3,1,0.6,1.5,0.8c0.3,0.1,0.5,0.3,0.8,0.4c0.5,0.3,1,0.5,1.5,0.8
			c0.3,0.1,0.6,0.3,0.9,0.4c0.5,0.3,1.1,0.5,1.6,0.7c0.1,0,0.2,0.1,0.3,0.1c0,0,0,0,0,0c8.3,3.7,18.6,6.6,30.2,8.3l5.6,10
			c-0.2,0-0.4,0.1-0.7,0.1c-0.5,0.1-1,0.2-1.5,0.3c-0.5,0.1-0.9,0.2-1.3,0.3c-0.4,0.1-0.9,0.2-1.3,0.3c-0.4,0.1-0.8,0.3-1.2,0.4
			c-0.4,0.1-0.8,0.2-1.2,0.4c-0.4,0.1-0.8,0.3-1.1,0.4c-0.3,0.1-0.6,0.2-0.8,0.3c0.1,0,0.1-0.1,0.2-0.1c-7.8,2.9-12.7,7.4-12.8,12.7
			c0,0.6,0,1.2,0.2,1.8c0,0.2,0.1,0.4,0.2,0.5c0.1,0.4,0.2,0.8,0.4,1.2c0.1,0.2,0.2,0.4,0.3,0.6c0.2,0.3,0.4,0.7,0.6,1
			c0.1,0.2,0.3,0.4,0.5,0.6c0.3,0.3,0.5,0.7,0.8,1c0.2,0.2,0.4,0.4,0.6,0.6c0.3,0.3,0.6,0.6,1,0.9c0.2,0.2,0.5,0.4,0.8,0.6
			c0.4,0.3,0.8,0.6,1.2,0.9c0.3,0.2,0.6,0.4,0.9,0.5c0.4,0.3,0.9,0.5,1.3,0.8c0.3,0.2,0.7,0.3,1,0.5c0.5,0.2,1,0.5,1.5,0.7
			c0.1,0,0.1,0.1,0.2,0.1c0,0,0,0,0,0c5.1,2.3,11.6,3.9,18.9,4.7c0,0,0,0,0,0c0,0,0,0,0.1,0c1,0.1,2,0.2,2.9,0.3
			c0.3,0,0.7,0.1,1,0.1c1.3,0.1,2.7,0.1,4,0.2c1.2,0,2.4,0,3.6,0c0.3,0,0.6,0,0.8,0c1.1,0,2.3-0.1,3.4-0.1c0.1,0,0.3,0,0.4,0
			c1-0.1,2-0.2,3-0.3c0.3,0,0.5,0,0.8-0.1c1.1-0.1,2.1-0.3,3.1-0.4c0.2,0,0.4-0.1,0.6-0.1c0.9-0.1,1.8-0.3,2.6-0.5
			c0.2,0,0.4-0.1,0.7-0.1c1-0.2,1.9-0.4,2.8-0.6c0.2-0.1,0.4-0.1,0.6-0.2c0.8-0.2,1.5-0.4,2.3-0.7c0.2-0.1,0.4-0.1,0.5-0.2
			c0.8-0.3,1.6-0.6,2.4-0.9c0.2-0.1,0.4-0.2,0.6-0.2c0.7-0.3,1.3-0.6,1.9-0.8c0.1-0.1,0.2-0.1,0.4-0.2c0.7-0.3,1.3-0.7,2-1
			c0.2-0.1,0.3-0.2,0.5-0.3c0.2-0.1,0.3-0.2,0.5-0.3c0,0,0,0,0,0c3.9-2.5,6.2-5.5,6.2-8.8c0.1-5.5-5.9-10.6-15.2-14
			c0.1,0,0.1,0.1,0.2,0.1c-0.3-0.1-0.5-0.2-0.8-0.3c-0.5-0.2-0.9-0.3-1.4-0.5c-0.4-0.1-0.8-0.2-1.1-0.4c-0.5-0.2-1-0.3-1.5-0.5
			c-0.4-0.1-0.8-0.2-1.3-0.3c-0.4-0.1-0.8-0.2-1.2-0.3l5.6-10.1c0.3,0,0.6-0.1,0.9-0.1c1-0.1,2.1-0.3,3.1-0.4c0.3,0,0.7-0.1,1-0.1
			c1.4-0.2,2.7-0.4,4-0.7c0.1,0,0.2,0,0.3-0.1c1.2-0.2,2.4-0.4,3.5-0.7c0.3-0.1,0.7-0.2,1-0.2c0.9-0.2,1.9-0.4,2.8-0.7
			c0.3-0.1,0.7-0.2,1-0.2c1.2-0.3,2.3-0.6,3.5-0.9c0,0,0,0,0.1,0c1.2-0.3,2.3-0.7,3.5-1.1c0.2-0.1,0.5-0.2,0.7-0.2
			c0.9-0.3,1.8-0.6,2.6-0.9c0.3-0.1,0.5-0.2,0.8-0.3c0.9-0.3,1.8-0.7,2.6-1c0.1-0.1,0.3-0.1,0.5-0.2c1-0.4,2-0.9,3-1.3
			c0.1,0,0.2-0.1,0.3-0.2c0.8-0.4,1.6-0.8,2.4-1.2c0.2-0.1,0.4-0.2,0.6-0.4c0.7-0.4,1.3-0.8,2-1.2c0.1-0.1,0.2-0.1,0.4-0.2
			c0,0,0,0,0,0c7.4-4.8,11.8-10.5,11.9-16.8C265.6,111.4,254.1,101.5,236.2,95 M157.1,168.1c0,0.1-0.1,0.1-0.1,0.2
			c0.1-0.2,0.3-0.4,0.4-0.6C157.2,167.9,157.1,168,157.1,168.1 M156.3,169.5c0,0.1-0.1,0.1-0.1,0.2c0.1-0.2,0.2-0.5,0.3-0.7
			C156.5,169.1,156.4,169.3,156.3,169.5 M162.8,163.6c-0.2,0.1-0.4,0.2-0.6,0.3c0.3-0.2,0.7-0.3,1-0.5
			C163.1,163.5,162.9,163.6,162.8,163.6 M161,164.6c-0.2,0.1-0.3,0.2-0.5,0.3c0.3-0.2,0.6-0.3,0.9-0.5
			C161.2,164.5,161.1,164.5,161,164.6 M159.4,165.7c-0.1,0.1-0.2,0.2-0.3,0.3c0.2-0.2,0.5-0.4,0.7-0.6
			C159.6,165.5,159.5,165.6,159.4,165.7 M193.2,185.2l6.4-10.6c-3,0.4-6,0.6-9.1,0.6c-3.1,0-6.1-0.2-9.1-0.6l6.3,10.5
			c-17.5-0.8-31.3-6.9-31.2-13.6c0-0.7,0.2-1.3,0.4-1.9c2.8-3.3,9.1-5.7,17.5-6.9l3.4,6.1c4.1,0.7,8.2,1.1,12.5,1.1
			c4.3,0,8.4-0.4,12.5-1.1l3-5.4c8.5,1.7,15,4.5,17.6,7.9c0.2,0.5,0.3,1.1,0.3,1.6C223.7,179.6,210.2,185,193.2,185.2 M156,170.9
			c0,0.1,0,0.1,0,0.2c0-0.3,0.1-0.5,0.1-0.8C156,170.5,156,170.7,156,170.9 M224.5,171.8C224.5,171.8,224.5,171.8,224.5,171.8
			C224.5,171.8,224.5,171.8,224.5,171.8C224.5,171.8,224.5,171.8,224.5,171.8 M224,170.5C224,170.4,224,170.4,224,170.5
			C224,170.4,224,170.5,224,170.5C224,170.5,224,170.5,224,170.5 M222.7,168.6C222.7,168.6,222.7,168.6,222.7,168.6
			c0.1,0.1,0.3,0.3,0.4,0.5C223.1,169,222.9,168.8,222.7,168.6 M124,110.1c0,0,0,0.1,0,0.1c0-0.2,0-0.4,0.1-0.6
			C124,109.7,124,109.9,124,110.1 M124.2,108.8c0-0.2,0.1-0.4,0.1-0.6c0,0.1-0.1,0.3-0.1,0.4C124.2,108.7,124.2,108.8,124.2,108.8
			 M124.5,107.5c0.1-0.2,0.1-0.4,0.2-0.5c0,0.1-0.1,0.2-0.1,0.4C124.6,107.4,124.6,107.4,124.5,107.5 M125,106.2
			c0.1-0.2,0.2-0.4,0.3-0.5c-0.1,0.1-0.1,0.2-0.1,0.3C125.1,106.1,125.1,106.2,125,106.2 M125.7,105c0.1-0.2,0.2-0.4,0.3-0.5
			c-0.1,0.1-0.1,0.2-0.2,0.3C125.8,104.8,125.7,104.9,125.7,105 M126.4,103.8c0.1-0.2,0.3-0.4,0.4-0.5c-0.1,0.1-0.1,0.2-0.2,0.2
			C126.6,103.6,126.5,103.7,126.4,103.8 M127.2,102.8c0,0,0.1-0.1,0.1-0.1C127.2,102.7,127.2,102.7,127.2,102.8
			C127.2,102.8,127.2,102.8,127.2,102.8 M127.3,102.6c0.1-0.2,0.3-0.4,0.5-0.5c-0.1,0.1-0.1,0.1-0.2,0.2
			C127.5,102.4,127.4,102.5,127.3,102.6 M238,95.7c0.3,0.1,0.6,0.2,0.9,0.4c-0.1,0-0.2-0.1-0.3-0.1C238.4,95.9,238.2,95.8,238,95.7
			 M240.1,96.6c0.3,0.1,0.6,0.3,0.8,0.4c-0.1,0-0.2-0.1-0.3-0.1C240.5,96.8,240.3,96.7,240.1,96.6 M242.2,97.6
			c0.3,0.1,0.5,0.3,0.8,0.4c-0.1,0-0.2-0.1-0.3-0.1C242.5,97.8,242.3,97.7,242.2,97.6 M244.1,98.7c0.2,0.1,0.5,0.3,0.7,0.4
			c-0.1,0-0.2-0.1-0.3-0.1C244.4,98.8,244.2,98.7,244.1,98.7 M245.9,99.7c0.2,0.1,0.5,0.3,0.7,0.4c-0.1-0.1-0.2-0.1-0.3-0.2
			C246.2,99.9,246,99.8,245.9,99.7 M247.5,100.8c0.2,0.1,0.4,0.3,0.6,0.4c-0.1-0.1-0.2-0.1-0.3-0.2
			C247.8,101,247.7,100.9,247.5,100.8 M249.1,101.9c0.2,0.2,0.4,0.3,0.6,0.5c-0.1-0.1-0.2-0.1-0.3-0.2
			C249.3,102.1,249.2,102,249.1,101.9 M250.5,103.1c0.2,0.2,0.4,0.3,0.5,0.5c-0.1-0.1-0.2-0.2-0.3-0.2
			C250.7,103.3,250.6,103.2,250.5,103.1 M199.6,136.8c-3.3,0.1-6.7,0.2-10.1,0.1c-2.8-0.1-5.5-0.2-8.1-0.4V132V92c3-0.1,6-0.1,9.2,0
			c3.1,0.1,6.1,0.2,9.1,0.4V132V136.8z M162.1,93.4v34v6.5c-21.8-4.5-36.8-13.6-36.7-23.3c0-1.3,0.3-2.5,0.8-3.6
			C131.7,100.3,144.8,95.6,162.1,93.4 M218.9,134.8v-7.4V94.9c17,3.2,30,8.8,35.3,15.5c0.3,1,0.5,2.1,0.5,3.1
			C254.4,122.9,239.9,131.1,218.9,134.8 M254.7,108.2c0,0-0.1-0.1-0.1-0.1c0.1,0.2,0.2,0.4,0.3,0.5c0,0,0,0,0-0.1
			C254.8,108.4,254.7,108.3,254.7,108.2 M253.9,106.9c0-0.1-0.1-0.1-0.1-0.2c0.1,0.2,0.3,0.4,0.4,0.5c0,0,0,0,0,0
			C254.1,107.1,254,107,253.9,106.9 M253,105.7c-0.1-0.1-0.1-0.1-0.2-0.2c0.1,0.2,0.3,0.4,0.4,0.5c0,0,0,0,0,0
			C253.2,105.9,253.1,105.8,253,105.7 M255.2,109.3c0,0.1,0.1,0.2,0.1,0.3c0-0.1-0.1-0.1-0.1-0.2
			C255.3,109.4,255.2,109.4,255.2,109.3 M255.4,109.7c0,0,0,0.1,0,0.1C255.5,109.8,255.4,109.8,255.4,109.7
			C255.4,109.8,255.4,109.8,255.4,109.7 M255.7,110.7C255.7,110.7,255.7,110.7,255.7,110.7C255.7,110.7,255.7,110.7,255.7,110.7
			C255.7,110.7,255.7,110.7,255.7,110.7 M255.8,111.1c0,0,0,0.1,0,0.1C255.9,111.2,255.8,111.1,255.8,111.1
			C255.8,111.1,255.8,111.1,255.8,111.1 M256.1,112.4c0,0,0,0.1,0,0.1C256.1,112.5,256.1,112.4,256.1,112.4
			C256.1,112.4,256.1,112.4,256.1,112.4 M252.2,104.8c-0.1-0.1-0.2-0.2-0.3-0.3c-0.1-0.1-0.1-0.1-0.2-0.2
			C251.9,104.5,252,104.6,252.2,104.8 M129.7,100.2c0.2-0.1,0.3-0.3,0.5-0.4c-0.1,0.1-0.2,0.2-0.3,0.2
			C129.9,100.1,129.8,100.1,129.7,100.2 M129.5,100.4c0,0-0.1,0.1-0.1,0.1C129.4,100.5,129.5,100.4,129.5,100.4
			C129.5,100.4,129.5,100.4,129.5,100.4 M130.6,99.5c0.1-0.1,0.2-0.1,0.2-0.2c0,0,0,0-0.1,0C130.7,99.4,130.7,99.4,130.6,99.5
			 M131.2,99c0.3-0.2,0.5-0.4,0.8-0.6c-0.2,0.2-0.4,0.3-0.6,0.5C131.3,98.9,131.3,99,131.2,99 M132.7,98c0.3-0.2,0.5-0.3,0.8-0.5
			c-0.2,0.1-0.4,0.3-0.6,0.4C132.8,97.9,132.8,97.9,132.7,98 M134.3,97c0.3-0.2,0.5-0.3,0.8-0.5c-0.2,0.1-0.4,0.2-0.6,0.4
			C134.5,96.9,134.4,96.9,134.3,97 M136,96c0.3-0.1,0.6-0.3,0.9-0.4c-0.2,0.1-0.4,0.2-0.6,0.3C136.2,95.9,136.1,96,136,96
			 M137.9,95.1c0.3-0.1,0.6-0.3,0.9-0.4c-0.2,0.1-0.4,0.2-0.6,0.3C138.1,95,138,95.1,137.9,95.1 M128.9,100.9
			c-0.1,0.1-0.1,0.1-0.2,0.2c-0.2,0.1-0.3,0.3-0.5,0.4c0,0,0,0-0.1,0.1C128.4,101.4,128.7,101.2,128.9,100.9 M124,110.4
			C124,110.4,124,110.4,124,110.4c0,0.2,0,0.3,0,0.5C124,110.7,124,110.6,124,110.4 M158.4,166.5c-0.1,0.1-0.2,0.2-0.3,0.3
			c-0.1,0.1-0.2,0.2-0.2,0.2C158,166.9,158.2,166.7,158.4,166.5 M155.9,171.4C155.9,171.4,155.9,171.4,155.9,171.4
			c0,0.1,0,0.2,0,0.3C155.8,171.6,155.9,171.5,155.9,171.4 M222,167.9c-0.2-0.1-0.4-0.3-0.5-0.4c0,0,0,0-0.1-0.1
			C221.6,167.5,221.8,167.7,222,167.9 M215.8,164c0.3,0.1,0.6,0.3,1,0.4c-0.2-0.1-0.5-0.2-0.7-0.3C216,164.1,215.9,164.1,215.8,164
			 M218,165.1c0.3,0.2,0.6,0.3,0.8,0.4c-0.2-0.1-0.4-0.2-0.7-0.4C218.1,165.1,218,165.1,218,165.1 M219.8,166.2
			c0.2,0.2,0.5,0.3,0.7,0.5c-0.2-0.1-0.4-0.3-0.6-0.4C219.9,166.2,219.9,166.2,219.8,166.2"/>
		<path class="st0" d="M190.5,200.2c-4,0-7.3,3.3-7.3,7.3c0,4,3.3,7.3,7.3,7.3c4,0,7.3-3.3,7.3-7.3
			C197.8,203.4,194.5,200.2,190.5,200.2"/>
		<path class="st0" d="M322.6,287.2c-1.2,0-2.4,0.8-2.9,1.9l-21.2,51.1c-0.2,0.5-1,0.5-1.2,0l-21.6-51.1c-0.5-1.1-1.6-1.9-2.9-1.9h0
			c-1.7,0-3.1,1.4-3.1,3.1v53.6c0,1,0.8,1.8,1.8,1.8h0c1,0,1.8-0.8,1.8-1.8v-49c0-0.7,1-0.9,1.3-0.3l20.7,49.4
			c0.4,1,1.4,1.7,2.5,1.7c1.1,0,2.1-0.7,2.5-1.7l20.5-49.3c0.3-0.7,1.3-0.5,1.3,0.3v48.9c0,1,0.8,1.8,1.8,1.8h0c1,0,1.8-0.8,1.8-1.8
			v-53.6C325.7,288.6,324.4,287.2,322.6,287.2"/>
		<path class="st0" d="M224.2,291.5h32.5c0.9,0,1.6-0.7,1.6-1.6v0c0-0.9-0.7-1.6-1.6-1.6h-32.5c-0.9,0-1.6,0.7-1.6,1.6v0
			C222.6,290.8,223.3,291.5,224.2,291.5"/>
		<path class="st0" d="M257.1,343.7h-30.9V318h21.1c0.9,0,1.6-0.7,1.6-1.6c0-0.9-0.7-1.6-1.6-1.6h-23.2c-0.9,0-1.6,0.7-1.6,1.6v28.8
			v0v0.3c0,0.6,0.5,1.1,1.2,1.2c0,0,0,0,0,0c0,0,0.1,0,0.2,0c0,0,0.1,0,0.1,0h0h0.4h32.5c0.9,0,1.6-0.7,1.6-1.6v0
			C258.7,344.4,258,343.7,257.1,343.7"/>
		<path class="st0" d="M205.9,297.4c-2.1-2.7-4.8-4.9-8.3-6.6c-3.5-1.6-7.8-2.5-13.1-2.5H168c-1.5,0-2.7,1.2-2.7,2.7v39.2
			c0,0.9,0.7,1.6,1.6,1.6h0.4c0.9,0,1.6-0.7,1.6-1.6v-37.4c0-0.7,0.6-1.3,1.3-1.3H184c1.4,0,3,0.1,4.8,0.3c1.8,0.2,3.5,0.6,5.3,1.2
			c1.8,0.6,3.5,1.5,5.2,2.6c1.7,1.1,3.1,2.6,4.4,4.6c1.3,1.9,2.3,4.3,3.1,7.2c0.8,2.8,1.2,6.3,1.2,10.2c0,5.1-0.7,9.3-2.1,12.7
			c-1.4,3.4-3.2,6-5.4,8c-2.2,2-4.7,3.4-7.5,4.3c-2.8,0.8-5.5,1.3-8.2,1.3l-17.7-0.1c-0.9,0-1.6,0.7-1.6,1.6v0
			c0,0.9,0.7,1.6,1.6,1.6h17.4c4.7,0,8.8-0.8,12.2-2.3c3.4-1.5,6.2-3.6,8.5-6.2c2.2-2.6,3.9-5.7,5-9.3c1.1-3.6,1.6-7.4,1.6-11.6
			c0-3.7-0.4-7.3-1.3-10.8C209.4,303.2,208,300.1,205.9,297.4"/>
		<path class="st0" d="M131.8,289.3c-0.2-0.6-0.8-0.9-1.4-0.9c-1,0-1.7,1-1.4,2l12.4,32.8c0.3,0.9-0.3,1.8-1.2,1.8l-23.9,0l7.7-20.1
			c0.3-0.8-0.1-1.8-0.9-2.1c-0.8-0.3-1.8,0.1-2.1,0.9l-8.6,22.4c-0.1,0.2-0.2,0.3-0.3,0.5l-7.3,18.2c-0.4,1,0.3,2,1.4,2h0.7
			c0.6,0,1.1-0.4,1.4-0.9l6.8-17c0.2-0.5,0.7-0.8,1.2-0.8h25.3c1.1,0,2.1,0.7,2.5,1.7l6.3,16.1c0.2,0.6,0.8,0.9,1.4,0.9h0.7
			c1,0,1.7-1,1.4-2L131.8,289.3z"/>
		<path class="st0" d="M59.1,298.2c2.1-2.5,4.6-4.5,7.6-5.9c3-1.5,6.4-2.2,10.2-2.2c2.5,0,4.8,0.4,7,1.1c2.2,0.7,4.2,1.7,6,3.1
			c1.8,1.4,3.3,3,4.5,5c0.6,0.9,1,1.9,1.4,3c0.2,0.7,0.9,1.1,1.6,1.1h0c1.2,0,2.1-1.2,1.6-2.4c-0.8-1.8-1.9-3.7-2.6-4.8
			c-1.1-1.6-2.5-3-4.2-4.4c-1.7-1.3-3.8-2.5-6.3-3.4c-2.5-0.9-5.5-1.4-8.9-1.4c-4.4,0-8.3,0.8-11.8,2.4c-3.5,1.6-6.4,3.8-8.8,6.5
			c-2.4,2.8-4.2,6-5.4,9.7c-1.3,3.7-1.9,7.7-1.9,12c0,4.3,0.6,8.3,1.9,12c1.3,3.7,3.1,7,5.4,9.7c2.4,2.8,5.3,4.9,8.8,6.5
			c3.5,1.6,7.4,2.4,11.8,2.4c3.2,0,6.3-0.6,9.1-1.8c2.8-1.2,5.3-2.9,7.5-5c1.6-1.6,3.6-4.3,5-6.9c0.6-1.1-0.2-2.6-1.5-2.6H97
			c-0.6,0-1.2,0.4-1.5,0.9c-0.7,1.3-2,3.7-4,5.8c-1.8,1.9-4,3.5-6.5,4.7c-2.5,1.2-5.1,1.8-8,1.8c-3.8,0-7.2-0.7-10.2-2.2
			c-3-1.5-5.5-3.5-7.6-5.9c-2.1-2.5-3.7-5.4-4.8-8.7c-1.1-3.3-1.6-6.9-1.6-10.6c0-3.8,0.5-7.3,1.6-10.6
			C55.5,303.6,57.1,300.7,59.1,298.2"/>
		<path class="st0" d="M380,288.8h-0.2c-0.5,0-1,0.3-1.3,0.7l-15,21.9c-0.4,0.5-0.4,1.2,0,1.8l0,0.1c0.6,0.9,1.9,0.9,2.6,0l15.2-22
			C382,290.2,381.3,288.8,380,288.8"/>
		<path class="st0" d="M335.8,288.8h-0.3c-1.3,0-2,1.4-1.3,2.4l21.7,31.6v22.9c0,0.9,0.7,1.6,1.6,1.6h0.5c0.9,0,1.6-0.7,1.6-1.6
			v-23.4l-22.4-32.8C336.8,289,336.3,288.8,335.8,288.8"/>
		<path class="st0" d="M27.1,289.3c-0.1-0.3-0.4-0.6-0.7-0.7c-0.9-0.7-2.1-0.8-3.1-0.1l-0.3,0.2c0,0,0,0,0,0h0
			c-0.2,0.2-0.4,0.4-0.5,0.6l-9.1,22.2c-0.4,0.8,0,1.8,0.8,2.1c0.2,0.1,0.4,0.2,0.7,0.2c0.6,0,1.2-0.3,1.5-0.9l8.5-20.9l11.8,31.3
			c0.3,0.9-0.3,1.8-1.2,1.8l-25.7,0c-1.1,0-2.1,0.7-2.5,1.7l-7.3,18.2c-0.4,1,0.3,2,1.4,2h0.7c0.6,0,1.1-0.4,1.4-0.9l6.8-17
			c0.2-0.5,0.7-0.8,1.2-0.8h25.3c1.1,0,2.1,0.7,2.5,1.7l6.3,16.1c0.2,0.6,0.8,0.9,1.4,0.9h0.7c1,0,1.7-1,1.4-2L27.1,289.3z"/>
		<path class="st0" d="M228.3,269.1L228.3,269.1c0.5,0,1-0.4,1-1v-26.2c0-0.4,0.5-0.5,0.7-0.1l11.1,26.4c0.2,0.5,0.8,0.9,1.3,0.9
			c0.6,0,1.1-0.4,1.3-0.9l10.9-26.4c0.1-0.4,0.7-0.3,0.7,0.1v26.2c0,0.5,0.4,1,1,1h0c0.5,0,1-0.4,1-1v-28.7c0-0.9-0.7-1.7-1.7-1.7
			c-0.7,0-1.3,0.4-1.5,1l-11.3,27.3c-0.1,0.3-0.5,0.3-0.7,0l-11.6-27.3c-0.3-0.6-0.9-1-1.5-1h0c-0.9,0-1.7,0.7-1.7,1.7v28.7
			C227.3,268.7,227.8,269.1,228.3,269.1"/>
		<path class="st0" d="M349.9,269.1c0.8,0,1.5-0.7,1.5-1.5v-28.8c0-0.5-0.4-1-1-1h0c-0.5,0-1,0.4-1,1v26.6c0,0.3-0.4,0.5-0.6,0.2
			l-18.8-27.1c-0.6-1-2.8-0.6-2.8,0.7v29c0,0.5,0.4,1,1,1h0c0.5,0,1-0.4,1-1l0.1-26.8c0-0.3,0.5-0.5,0.6-0.2l18.8,27.3
			C349,268.8,349.4,269.1,349.9,269.1"/>
		<path class="st0" d="M45.6,264.3c1.3,1.5,2.8,2.6,4.7,3.5c1.9,0.8,3.9,1.3,6.3,1.3c2.3,0,4.4-0.4,6.3-1.3c1.8-0.8,3.4-2,4.7-3.5
			c1.3-1.5,2.2-3.2,2.9-5.2c0.7-2,1-4.1,1-6.4c0-2.3-0.3-4.4-1-6.4c-0.7-2-1.6-3.7-2.9-5.2c-1.3-1.5-2.8-2.6-4.7-3.5
			c-1.8-0.8-3.9-1.3-6.3-1.3c-2.3,0-4.4,0.4-6.3,1.3c-1.9,0.8-3.4,2-4.7,3.5c-1.3,1.5-2.2,3.2-2.9,5.2c-0.7,2-1,4.1-1,6.4
			c0,2.3,0.3,4.4,1,6.4C43.4,261.1,44.3,262.9,45.6,264.3 M44.5,247c0.6-1.8,1.4-3.3,2.5-4.7c1.1-1.3,2.5-2.4,4.1-3.2
			s3.4-1.2,5.5-1.2c2,0,3.9,0.4,5.5,1.2c1.6,0.8,2.9,1.8,4.1,3.2c1.1,1.3,2,2.9,2.5,4.7c0.6,1.8,0.9,3.7,0.9,5.7
			c0,2-0.3,3.9-0.9,5.7c-0.6,1.8-1.4,3.3-2.5,4.7c-1.1,1.3-2.5,2.4-4.1,3.2c-1.6,0.8-3.4,1.2-5.5,1.2c-2,0-3.9-0.4-5.5-1.2
			c-1.6-0.8-3-1.8-4.1-3.2c-1.1-1.3-2-2.9-2.5-4.7c-0.6-1.8-0.9-3.7-0.9-5.7C43.6,250.7,43.9,248.8,44.5,247"/>
		<path class="st0" d="M215.9,241.1c-1.3-1.5-2.8-2.6-4.7-3.5s-3.9-1.3-6.3-1.3c-2.3,0-4.4,0.4-6.3,1.3s-3.4,2-4.7,3.5
			c-1.3,1.5-2.2,3.2-2.9,5.2c-0.7,2-1,4.1-1,6.4c0,2.3,0.3,4.4,1,6.4c0.7,2,1.6,3.7,2.9,5.2c1.3,1.5,2.8,2.6,4.7,3.5
			c1.9,0.8,3.9,1.3,6.3,1.3c2.3,0,4.4-0.4,6.3-1.3c1.8-0.8,3.4-2,4.7-3.5c1.3-1.5,2.2-3.2,2.9-5.2s1-4.1,1-6.4c0-2.3-0.3-4.4-1-6.4
			S217.1,242.5,215.9,241.1 M217,258.4c-0.6,1.8-1.4,3.3-2.5,4.7c-1.1,1.3-2.5,2.4-4.1,3.2c-1.6,0.8-3.4,1.2-5.5,1.2
			c-2,0-3.9-0.4-5.5-1.2c-1.6-0.8-3-1.8-4.1-3.2c-1.1-1.3-2-2.9-2.5-4.7c-0.6-1.8-0.9-3.7-0.9-5.7c0-2,0.3-3.9,0.9-5.7
			c0.6-1.8,1.4-3.3,2.5-4.7c1.1-1.3,2.5-2.4,4.1-3.2c1.6-0.8,3.4-1.2,5.5-1.2c2,0,3.9,0.4,5.5,1.2c1.6,0.8,2.9,1.8,4.1,3.2
			c1.1,1.3,2,2.9,2.5,4.7c0.6,1.8,0.9,3.7,0.9,5.7C217.9,254.7,217.6,256.6,217,258.4"/>
		<path class="st0" d="M102.4,237.1h-0.3c-0.5,0-0.8,0.4-0.8,0.8v17.9c0,1.8-0.2,3.4-0.5,4.8c-0.4,1.4-0.9,2.7-1.7,3.7
			c-0.8,1-1.9,1.8-3.2,2.3c-1.3,0.5-2.9,0.8-4.8,0.8c-1.5,0-2.8-0.2-3.9-0.6c-1.1-0.4-2-0.9-2.7-1.6c-0.7-0.7-1.3-1.4-1.7-2.2
			c-0.4-0.8-0.7-1.7-1-2.5c-0.2-0.9-0.4-1.7-0.4-2.5c-0.1-0.8-0.1-1.5-0.1-2.1v-17.9c0-0.5-0.4-0.8-0.8-0.8h-0.3
			c-0.5,0-0.8,0.4-0.8,0.8v17.9c0,0.7,0,1.5,0.1,2.4c0.1,0.9,0.2,1.9,0.5,2.8c0.3,1,0.6,1.9,1.1,2.9c0.5,1,1.2,1.8,2,2.6
			c0.9,0.7,1.9,1.4,3.3,1.8c1.3,0.5,2.9,0.7,4.7,0.7c2.3,0,4.3-0.3,5.8-1c1.6-0.7,2.8-1.6,3.7-2.8c0.9-1.2,1.6-2.6,2-4.2
			c0.4-1.6,0.6-3.3,0.6-5.2v-17.9C103.3,237.4,102.9,237.1,102.4,237.1"/>
		<path class="st0" d="M289.8,247.5c0-2,0-9.7-9.1-9.7h-12.5c-0.5,0-0.8,0.4-0.8,0.8v0c0,0.5,0.4,0.8,0.8,0.8l12.4,0
			c6.9,0,7.3,7,7.3,7.9c0,1.2-0.4,7.8-7.6,7.8l-11.5,0c-0.8,0-1.4,0.6-1.4,1.4v11.6c0,0.5,0.4,0.8,0.8,0.8h0.3
			c0.5,0,0.8-0.4,0.8-0.8v-11c0-0.2,0.2-0.4,0.4-0.4H280C289,256.9,289.8,250.2,289.8,247.5"/>
		<path class="st0" d="M113.8,269.1h0.3c0.5,0,0.8-0.4,0.8-0.8v-11c0-0.2,0.2-0.4,0.4-0.4h10.3c0.2,0,0.3,0,0.5,0l7.1,11.8
			c0.2,0.2,0.4,0.4,0.7,0.4c0.6,0,1-0.7,0.7-1.3l-6.7-11.1c6.9-1,7.5-6.7,7.5-9.2c0-2,0-9.7-9.1-9.7h-12.5c-0.5,0-0.8,0.4-0.8,0.8v0
			c0,0.5,0.4,0.8,0.8,0.8l12.4,0c6.9,0,7.3,7,7.3,7.9c0,1.2-0.4,7.8-7.6,7.8l-11.5,0c-0.8,0-1.4,0.6-1.4,1.4v11.6
			C113,268.7,113.3,269.1,113.8,269.1"/>
		<path class="st0" d="M175.5,268.1c1.5-0.6,2.9-1.5,4-2.7c0.9-0.9,1.9-2.3,2.7-3.7c0.3-0.6-0.1-1.4-0.8-1.4h-0.1
			c-0.3,0-0.7,0.2-0.8,0.5c-0.4,0.7-1.1,2-2.1,3.1c-1,1-2.2,1.9-3.5,2.5c-1.3,0.6-2.8,0.9-4.3,0.9c-2,0-3.9-0.4-5.5-1.2
			c-1.6-0.8-3-1.8-4.1-3.2c-1.1-1.3-2-2.9-2.5-4.7c-0.6-1.8-0.9-3.7-0.9-5.7c0-2,0.3-3.9,0.9-5.7c0.6-1.8,1.4-3.3,2.5-4.7
			c1.1-1.3,2.5-2.4,4.1-3.2c1.6-0.8,3.4-1.2,5.5-1.2c1.3,0,2.6,0.2,3.7,0.6c1.2,0.4,2.3,0.9,3.2,1.7c1,0.7,1.8,1.6,2.4,2.6
			c0.3,0.5,0.6,1,0.8,1.6c0.1,0.3,0.5,0.6,0.8,0.6h0c0.7,0,1.1-0.7,0.8-1.3c-0.4-1-1-2-1.4-2.6c-0.6-0.8-1.3-1.6-2.3-2.3
			c-0.9-0.7-2.1-1.3-3.4-1.8c-1.3-0.5-2.9-0.7-4.8-0.7c-2.3,0-4.4,0.4-6.3,1.3c-1.9,0.8-3.4,2-4.7,3.5c-1.3,1.5-2.2,3.2-2.9,5.2
			c-0.7,2-1,4.1-1,6.4c0,2.3,0.3,4.4,1,6.4c0.7,2,1.6,3.7,2.9,5.2c1.3,1.5,2.8,2.6,4.7,3.5c1.9,0.8,3.9,1.3,6.3,1.3
			C172.3,269.1,173.9,268.8,175.5,268.1"/>
		<path class="st0" d="M28,250.8c0.3,0.5,1,0.5,1.4,0l8.1-11.7c0.4-0.6,0-1.3-0.7-1.3h-0.1c-0.3,0-0.5,0.1-0.7,0.4l-8,11.7
			C27.7,250.2,27.7,250.5,28,250.8L28,250.8z"/>
		<path class="st0" d="M23.9,256v12.3c0,0.5,0.4,0.8,0.8,0.8H25c0.5,0,0.8-0.4,0.8-0.8v-12.5l-12-17.5c-0.2-0.2-0.4-0.4-0.7-0.4H13
			c-0.7,0-1.1,0.8-0.7,1.3L23.9,256z"/>
		<path class="st0" d="M371.9,250.8c0.3,0.5,1,0.5,1.4,0l8.1-11.7c0.4-0.6,0-1.3-0.7-1.3h-0.1c-0.3,0-0.5,0.1-0.7,0.4l-8,11.7
			C371.7,250.2,371.7,250.5,371.9,250.8L371.9,250.8z"/>
		<path class="st0" d="M367.8,256v12.3c0,0.5,0.4,0.8,0.8,0.8h0.3c0.5,0,0.8-0.4,0.8-0.8v-12.5l-12-17.5c-0.2-0.2-0.4-0.4-0.7-0.4
			h-0.2c-0.7,0-1.1,0.8-0.7,1.3L367.8,256z"/>
		<path class="st0" d="M295.8,269.1h0.4c0.3,0,0.6-0.2,0.7-0.5l3.6-9.1c0.1-0.3,0.4-0.4,0.7-0.4h13.5c0.6,0,1.1,0.4,1.3,0.9l3.4,8.6
			c0.1,0.3,0.4,0.5,0.7,0.5h0.4c0.5,0,0.9-0.6,0.7-1.1l-11.7-29.7c-0.1-0.2-0.2-0.3-0.4-0.4c-0.5-0.4-1.1-0.4-1.7,0l-0.1,0.1
			c0,0,0,0,0,0l0,0c-0.1,0.1-0.2,0.2-0.3,0.3l-4.8,11.9c-0.2,0.4,0,0.9,0.4,1.1c0.1,0.1,0.2,0.1,0.4,0.1c0.3,0,0.6-0.2,0.8-0.5
			l4.6-11.2l6.3,16.7c0.2,0.5-0.2,1-0.7,1l-13.7,0c-0.6,0-1.1,0.4-1.3,0.9l-3.9,9.7C294.9,268.5,295.2,269.1,295.8,269.1"/>
	</g>
</g>
</svg>
