<?xml version="1.0" encoding="utf-8"?>
<!-- Generator: Adobe Illustrator 24.2.0, SVG Export Plug-In . SVG Version: 6.00 Build 0)  -->
<svg version="1.1" id="Layer_1" xmlns="http://www.w3.org/2000/svg" xmlns:xlink="http://www.w3.org/1999/xlink" x="0px" y="0px"
	 viewBox="0 0 22.3 28.5" style="enable-background:new 0 0 22.3 28.5;" xml:space="preserve">
<style type="text/css">
	.st0{fill:#3459A0;}
</style>
<path class="st0" d="M11.2,0C11.2,0,0,9.3,0,17.4c0,6.2,5,11.2,11.2,11.2c6.2,0,11.2-5,11.2-11.2C22.3,8.4,11.2,0,11.2,0z
	 M16.7,22.7c-1.2,1.1-3.3,2.1-5,2.3c-0.5,0.1-0.9,0.1-1.4,0.1c-0.5,0-0.8-0.4-0.8-0.9c0-0.5,0.4-0.8,0.9-0.8c1.9,0.1,4-0.8,5.2-1.9
	c2.5-2.4,1.6-6.3,1.6-6.3c0-0.5,0.4-0.8,0.8-0.8c0.5,0,0.8,0.4,0.8,0.8C18.7,15.4,19.6,19.8,16.7,22.7z"/>
</svg>
