<?xml version="1.0" encoding="utf-8"?>
<!-- Generator: Adobe Illustrator 24.2.0, SVG Export Plug-In . SVG Version: 6.00 Build 0)  -->
<svg version="1.1" id="Layer_1" xmlns="http://www.w3.org/2000/svg" xmlns:xlink="http://www.w3.org/1999/xlink" x="0px" y="0px"
	 viewBox="0 0 36.2 38" style="enable-background:new 0 0 36.2 38;" xml:space="preserve">
<style type="text/css">
	.st0{fill:#FFFFFF;}
</style>
<path class="st0" d="M31.6,20.4h2.5c0.9,0,1.6-0.5,2-1.3c0.3-0.7,0.2-1.4-0.2-2c-0.1-0.1-0.2-0.2-0.3-0.3l-16-16.1
	c-0.2-0.2-0.5-0.4-0.8-0.5c-0.8-0.3-1.6,0-2.2,0.5l-16,16.1c-0.6,0.6-0.8,1.5-0.5,2.3c0,0.1,0.1,0.1,0.1,0.2
	c0.2,0.4,0.5,0.7,0.9,0.9c0.3,0.2,0.7,0.3,1,0.3h2.5v15.5c0,0.5,0.1,0.9,0.4,1.2c0.1,0.2,0.3,0.4,0.5,0.5C5.8,37.9,6.3,38,6.7,38
	h5.6c1.2,0,2.1-1,2.1-2.1l0-9.6c0-0.2,0.2-0.4,0.4-0.4h6.4c0.2,0,0.4,0.2,0.4,0.5v9.5c0,1.2,1,2.1,2.1,2.1h5.6c1.2,0,2.1-1,2.1-2.1
	V20.4z"/>
</svg>
