<?xml version="1.0" encoding="utf-8"?>
<!-- Generator: Adobe Illustrator 24.2.0, SVG Export Plug-In . SVG Version: 6.00 Build 0)  -->
<svg version="1.1" id="Layer_1" xmlns="http://www.w3.org/2000/svg" xmlns:xlink="http://www.w3.org/1999/xlink" x="0px" y="0px"
	 viewBox="0 0 39.5 40.1" style="enable-background:new 0 0 39.5 40.1;" xml:space="preserve">
<style type="text/css">
	.st0{fill:#FFFFFF;}
</style>
<path class="st0" d="M37.6,21.4c-0.8,0-1.5,0.2-2.3,0.2c-0.7,0-1.2-0.4-1.4-1.1c-0.2-0.7,0-1.3,0.6-1.7c0.7-0.4,1.4-0.2,2.1-0.2
	c0.2,0,0.4,0,0.6,0.1c0.9,0.1,1.7-0.1,2.1-1c0.4-0.8,0.3-1.5-0.4-2.1c-0.7-0.7-1.5-0.6-2.3-0.2c-0.4,0.2-0.8,0.4-1.2,0.6
	c-1.1,0.6-1.9,0.3-2.4-0.8c-0.5-1.2,0.3-1.8,1.3-2.1c0.6-0.2,1.1-0.2,1.7-0.4c0.8-0.3,1.3-0.9,1.3-1.7c0-0.7-0.3-1.3-0.9-1.6
	C35.7,9,34.9,9,34.3,9.6c-0.5,0.5-1,1.1-1.5,1.5c-0.8,0.7-1.5,0.6-2.2-0.1c-0.7-0.8-0.6-1.6,0.2-2.2c0.5-0.5,1.2-0.8,1.8-1.2
	c0.7-0.5,0.9-1.3,0.6-2.1c-0.2-0.7-0.7-1.1-1.4-1.2c-0.9-0.1-1.5,0.2-2,0.9c-0.3,0.6-0.5,1.3-0.9,1.9c-0.5,0.8-1.2,1.2-2.1,0.7
	c-0.9-0.5-1-1.3-0.6-2.2c0.3-0.6,0.8-1,1.1-1.6c0.5-0.7,0.6-1.5,0.1-2.2c-0.5-0.7-1.2-0.9-2-0.7c-0.8,0.2-1.2,0.8-1.3,1.7
	c0,0.7-0.1,1.4-0.2,2.1C23.7,6,23,6.3,22.2,6.2c-0.9-0.2-1.3-0.8-1.2-1.7c0.1-0.6,0.3-1.2,0.5-1.9c0.2-0.9,0.2-1.7-0.7-2.2
	c-0.6-0.4-1.3-0.5-2-0.1c-0.8,0.5-1,1.3-0.8,2.2c0.2,0.6,0.4,1.2,0.5,1.9c0.2,1-0.4,1.6-1.3,1.8c-0.9,0.2-1.5-0.4-1.7-1.2
	c-0.2-0.7-0.1-1.4-0.2-2.1C15.3,2,14.9,1.4,14,1.2c-0.8-0.2-1.4,0-1.9,0.6c-0.5,0.7-0.5,1.4,0,2.2c0.4,0.5,0.8,1,1.1,1.6
	c0.5,0.9,0.4,1.8-0.6,2.3c-1,0.5-1.6,0-2.1-0.8C10.2,6.6,10.1,6,9.8,5.5c-0.4-0.9-1-1.3-2-1.2C7.1,4.4,6.6,4.8,6.4,5.4
	C6.1,6.3,6.3,7.1,7.1,7.6C7.5,7.9,8,8.2,8.4,8.5C9.3,9.1,9.8,9.9,9,10.9c-0.8,1-1.7,0.8-2.5,0c-0.3-0.3-0.6-0.7-0.9-1
	C4.9,9.2,4.3,8.8,3.3,9.2c-0.8,0.4-1.2,1-1.2,1.8c0.1,1.1,0.8,1.5,1.8,1.8c0.5,0.1,1,0.2,1.5,0.4c0.9,0.3,1.4,1,1.1,1.9
	c-0.4,1-1.1,1.4-2.1,0.9c-0.6-0.3-1.3-0.7-1.9-0.9C1.7,14.9,1,15,0.5,15.6c-0.5,0.6-0.6,1.3-0.3,2c0.3,0.7,0.9,1.1,1.7,1.1
	c0.6,0,1.2-0.1,1.7-0.2c1.1-0.1,2,0.2,2,1.5c0,1.4-0.9,1.7-2.1,1.6c-0.5-0.1-1-0.1-1.5-0.2c-0.9-0.1-1.5,0.3-1.8,1.1
	c-0.2,0.6-0.2,1.3,0.3,1.8C1,25,1.7,25.1,2.5,24.8c0.7-0.2,1.3-0.6,1.9-0.9c1-0.4,1.7,0,2,0.9c0.4,0.9,0,1.6-0.9,2
	c-0.7,0.2-1.4,0.3-2.1,0.5c-0.8,0.3-1.3,0.8-1.3,1.7c0,0.8,0.4,1.3,1.1,1.7c0.7,0.4,1.4,0.2,2-0.3c0.5-0.5,1-1,1.5-1.5
	c0.8-0.7,1.6-0.6,2.2,0.1c0.7,0.7,0.6,1.6-0.2,2.2c-0.4,0.4-0.9,0.7-1.4,1c-0.8,0.5-1.2,1.1-1,2.1c0.2,0.8,0.7,1.4,1.6,1.4
	c1,0.1,1.6-0.4,2-1.3c0.2-0.5,0.4-1,0.6-1.4c0.5-0.9,1.2-1.5,2.2-0.8c1.1,0.6,1,1.5,0.4,2.5c-0.3,0.4-0.5,0.7-0.8,1.1
	c-0.6,0.7-0.7,1.5-0.2,2.3c0.5,0.7,1.2,1,2,0.7c1-0.2,1.3-1,1.3-1.9c0-0.6,0-1.2,0.1-1.7c0.2-0.9,0.8-1.5,1.8-1.3
	c0.9,0.2,1.4,0.9,1.2,1.9c-0.1,0.6-0.4,1.2-0.5,1.9c-0.2,0.8,0,1.6,0.7,2.1c0.7,0.5,1.5,0.4,2.2-0.1c0.7-0.5,0.8-1.3,0.6-2.1
	c-0.1-0.6-0.4-1.1-0.5-1.7c-0.3-1.1,0.3-1.8,1.3-2c1-0.2,1.6,0.4,1.7,1.4c0.1,0.6,0.1,1.3,0.2,1.9c0.1,0.9,0.5,1.5,1.4,1.7
	c0.8,0.2,1.4,0,1.9-0.6c0.5-0.7,0.5-1.4,0-2.2c-0.4-0.6-0.9-1.1-1.2-1.7c-0.4-0.9-0.2-1.6,0.7-2.1c0.8-0.4,1.5-0.1,2,0.6
	c0.4,0.6,0.6,1.3,0.9,1.9c0.4,0.8,1,1.1,1.9,1c0.8-0.1,1.3-0.5,1.5-1.3c0.2-0.8,0-1.5-0.7-2c-0.5-0.4-1.1-0.7-1.6-1.1
	c-0.7-0.6-1-1.4-0.3-2.2c0.7-0.9,1.6-0.8,2.4-0.1c0.4,0.4,0.8,0.9,1.2,1.3c0.6,0.6,1.4,1,2.3,0.5c0.7-0.4,1.1-1,1-1.7
	c-0.1-0.9-0.7-1.5-1.6-1.7c-0.6-0.1-1.1-0.2-1.7-0.4c-0.9-0.3-1.4-0.9-1.1-1.9c0.4-1,1.1-1.4,2.1-0.9c0.6,0.3,1.3,0.6,1.9,0.9
	c0.7,0.3,1.4,0.1,2-0.5c0.6-0.6,0.6-1.3,0.3-2C39,21.7,38.4,21.4,37.6,21.4z M15.5,17.2c-0.8,0-1.5-0.7-1.5-1.5
	c0-0.8,0.7-1.5,1.5-1.5c0.8,0,1.5,0.7,1.5,1.5C17,16.5,16.3,17.2,15.5,17.2z M22.4,11.6c1.3,0,2.3,1,2.3,2.3c0,1.3-1,2.3-2.3,2.3
	s-2.3-1-2.3-2.3C20.1,12.7,21.2,11.6,22.4,11.6z M22.8,26.5c-1.1,0-2-0.9-2-2c0-1.1,0.9-2,2-2s2,0.9,2,2
	C24.8,25.6,23.9,26.5,22.8,26.5z M28,20.2c-0.5,0-0.8-0.4-0.8-0.8s0.4-0.8,0.8-0.8s0.8,0.4,0.8,0.8S28.5,20.2,28,20.2z"/>
</svg>
