<?xml version="1.0" encoding="utf-8"?>
<!-- Generator: Adobe Illustrator 24.2.0, SVG Export Plug-In . SVG Version: 6.00 Build 0)  -->
<svg version="1.1" id="Layer_1" xmlns="http://www.w3.org/2000/svg" xmlns:xlink="http://www.w3.org/1999/xlink" x="0px" y="0px"
	 viewBox="0 0 42.7 33.1" style="enable-background:new 0 0 42.7 33.1;" xml:space="preserve">
<style type="text/css">
	.st0{fill:#3459A0;}
</style>
<g>
	<path class="st0" d="M17.7,22.5c0.2,0.1,0.4,0.1,0.6,0.1c0.3,0,0.6-0.1,0.8-0.2c0.1-0.1,0.2-0.1,0.2-0.2l10.1-6.7
		c0.2-0.2,0.3-0.4,0.4-0.6c0.2-0.5,0-1.1-0.4-1.5l-10-6.7c-0.4-0.4-1.1-0.5-1.6-0.3c0,0-0.1,0-0.1,0.1c-0.3,0.1-0.5,0.3-0.6,0.6
		c-0.1,0.2-0.2,0.5-0.2,0.7v13.4C16.7,21.7,17.1,22.2,17.7,22.5z M18.2,9.8l0-2.1l10,6.7l-10.1,6.7V9.8z"/>
	<path class="st0" d="M38.7,0H4C1.8,0,0,1.9,0,4.2v25.1v0.9V31c0,1.1,0.9,2.1,2.1,2.1h38.5c1.1,0,2.1-0.9,2.1-2.1v-0.7v-0.9V4.2
		C42.7,1.9,40.9,0,38.7,0z M4,1.6h34.7c1.3,0,2.4,1.2,2.4,2.6v23.1c-0.2,0-0.4-0.1-0.5-0.1H2.1c-0.2,0-0.4,0-0.5,0.1V4.2
		C1.6,2.8,2.7,1.6,4,1.6z M41.1,31c0,0.3-0.3,0.6-0.6,0.6H2.2c-0.3,0-0.6-0.3-0.6-0.6v-0.7h0v-0.9c0-0.3,0.3-0.6,0.6-0.6h38.3
		c0.3,0,0.6,0.3,0.6,0.6V31z"/>
</g>
</svg>
