<?xml version="1.0" encoding="utf-8"?>
<!-- Generator: Adobe Illustrator 24.2.0, SVG Export Plug-In . SVG Version: 6.00 Build 0)  -->
<svg version="1.1" id="Layer_1" xmlns="http://www.w3.org/2000/svg" xmlns:xlink="http://www.w3.org/1999/xlink" x="0px" y="0px"
	 viewBox="0 0 34.6 32.1" style="enable-background:new 0 0 34.6 32.1;" xml:space="preserve">
<style type="text/css">
	.st0{fill:#86286B;}
</style>
<g>
	<path class="st0" d="M31.3,6.1h-5.4V2c0-1.1-0.9-2-2-2H10.8c-1.1,0-2,0.9-2,2v4.1H3.4C1.5,6.1,0,7.6,0,9.4v19.3
		c0,1.9,1.5,3.4,3.4,3.4h27.9c1.9,0,3.4-1.5,3.4-3.4V9.4C34.6,7.6,33.1,6.1,31.3,6.1z M33,9.4v19.3c0,1-0.8,1.7-1.7,1.7H3.4
		c-1,0-1.7-0.8-1.7-1.7V9.4c0-1,0.8-1.7,1.7-1.7h27.9C32.2,7.7,33,8.5,33,9.4z M24.2,6.1H10.5V2c0-0.2,0.1-0.3,0.3-0.3h13.1
		c0.2,0,0.3,0.1,0.3,0.3V6.1z"/>
	<path class="st0" d="M30.2,10.9H4.4c-0.5,0-0.8,0.4-0.8,0.8c0,0.5,0.4,0.8,0.8,0.8h25.8c0.5,0,0.8-0.4,0.8-0.8
		C31,11.3,30.7,10.9,30.2,10.9z"/>
	<path class="st0" d="M30.2,25.6H4.4c-0.5,0-0.8,0.4-0.8,0.8c0,0.5,0.4,0.8,0.8,0.8h25.8c0.5,0,0.8-0.4,0.8-0.8
		C31,26,30.7,25.6,30.2,25.6z"/>
</g>
</svg>
