<?xml version="1.0" encoding="utf-8"?>
<!-- Generator: Adobe Illustrator 24.2.0, SVG Export Plug-In . SVG Version: 6.00 Build 0)  -->
<svg version="1.1" id="Layer_1" xmlns="http://www.w3.org/2000/svg" xmlns:xlink="http://www.w3.org/1999/xlink" x="0px" y="0px"
	 viewBox="0 0 42.7 28" style="enable-background:new 0 0 42.7 28;" xml:space="preserve">
<style type="text/css">
	.st0{fill:#4797D2;}
</style>
<g>
	<path class="st0" d="M41.3,0H1.5C0.7,0,0,0.7,0,1.5v25.1C0,27.3,0.7,28,1.5,28h39.8c0.8,0,1.5-0.7,1.5-1.5V1.5
		C42.7,0.7,42.1,0,41.3,0z M1.8,23.7h14.9c0.3,0,0.7-0.2,0.8-0.5l3.7-7.6l2.5,3.3c0.3,0.4,0.8,0.5,1.2,0.2l5-3.1l3.1,1.3
		c0.4,0.2,0.9,0,1.1-0.4l6.2-11.6c0.2-0.4,0.1-1-0.4-1.2C39.8,4,39.5,4,39.3,4c-0.2,0.1-0.4,0.2-0.5,0.4l-5.9,10.9l-2.8-1.2
		c-0.3-0.1-0.6-0.1-0.8,0.1l-4.7,2.9l-2.9-3.8c-0.2-0.2-0.5-0.4-0.8-0.3c-0.3,0-0.6,0.2-0.7,0.5l-4.1,8.5H1.8l0-20.1l39.2,0v24.5
		l-39.2,0L1.8,23.7z"/>
	<path class="st0" d="M16.7,15.8c1-1.4,1.5-3.1,1.2-4.8c-0.2-1.7-1.1-3.2-2.5-4.2c-1.3-1-2.8-1.4-4.4-1.3L10.9,5
		c-0.1-0.5-0.5-0.8-1-0.7C8,4.5,6.3,5.6,5.1,7.1C4,8.6,3.5,10.6,3.7,12.5c0.1,0.4,0.4,0.8,0.9,0.8l0.7-0.1c0.3,1.6,1.1,2.9,2.4,3.9
		c1.1,0.8,2.5,1.3,3.9,1.3C13.6,18.4,15.5,17.4,16.7,15.8z M11.2,12.5c0.2,0,0.5-0.2,0.6-0.3C12,12,12,11.7,12,11.5l-0.7-4.2
		c1.1-0.1,2.2,0.3,3.1,0.9c1,0.8,1.6,1.8,1.8,3.1c0.2,1.2-0.1,2.5-0.9,3.5c-0.7,1-1.8,1.6-3.1,1.8c-1.2,0.2-2.5-0.1-3.5-0.9
		C7.9,15,7.3,14.1,7,13L11.2,12.5z M10.1,10.8l-4.7,0.5c0-1.2,0.4-2.3,1.1-3.2c0.7-0.9,1.7-1.6,2.8-2L10.1,10.8z"/>
</g>
</svg>
