<?xml version="1.0" encoding="utf-8"?>
<!-- Generator: Adobe Illustrator 24.2.0, SVG Export Plug-In . SVG Version: 6.00 Build 0)  -->
<svg version="1.1" id="Layer_1" xmlns="http://www.w3.org/2000/svg" xmlns:xlink="http://www.w3.org/1999/xlink" x="0px" y="0px"
	 viewBox="0 0 54.4 38" style="enable-background:new 0 0 54.4 38;" xml:space="preserve">
<style type="text/css">
	.st0{fill:#FFFFFF;}
</style>
<path class="st0" d="M53.8,3.9c-0.9-1.5-2.9-2-4.6-1.8c-1.7,0.2-3.8,1.4-5.3,2.4c-2.6,1.7-5,1.3-7.5,0.2c-1.4-0.6-1.5-1.2-2.7-2.1
	c-5.2-3.9-9.6-2.8-12.8-0.1c-1.1,1-1.6,1.5-2.9,2.1c-2.5,1.1-4.9,1.5-7.5-0.2C9,3.4,6.9,2.2,5.2,2C3.4,1.8,1.5,2.4,0.6,3.9
	c-0.9,1.4-0.7,3.3,0.1,4.7C1.5,10,2.8,11.1,4,12.2l0.1,0.1c0,0.2,0.1,0.4,0.2,0.5c0,0,0,0,0,0c-0.1,0.6,0,1.3,0.3,1.8
	c0.2,0.4,0.5,0.7,0.8,1c1,1,2.2,1.7,3.6,1.8c1.4,0.1,2.9-0.4,3.6-1.6c0.7-1.1,0.7-2.6,0-3.7c-0.7-1.1-1.8-1.9-3.1-2.1
	C8.8,10,8.1,10,7.3,10.1C6.9,9.9,6.5,9.9,6.1,10C5.2,9.5,4.2,9.1,3.5,8.3C2.9,7.5,2.4,6.2,3,5.4c0.7-1,2.1-1.2,3.3-0.8
	c1.1,0.4,3.2,1.6,4.2,2.2c2.5,1.3,4.7,1.1,7.2,0.4l0,0.1c0,0.7,0.1,1.3,0.2,2c0.2,1.3,0.4,2.6,1,3.7c0.7,1.6,1.9,2.9,2.9,4.3
	c0.9,1.5,1.5,3.3,0.8,4.9c-0.7,1.6-0.3,3.5,0.4,5.1c0.7,1.6,1.6,3.2,2,4.9c0.4,1.7,0.3,3.4,0.1,5.1c0,0,0.4,0.7,1.8,0.7
	c1.5,0.1,2.3-0.7,2.3-0.7c-0.1-1.7-0.3-3.4,0.1-5.1c0.4-1.7,1.4-3.2,2-4.9c0.7-1.6,1.1-3.5,0.4-5.1c-0.7-1.6-0.1-3.5,0.8-4.9
	c0.9-1.5,2.1-2.7,2.9-4.3c0.5-1.2,0.8-2.5,1-3.7c0.1-0.7,0.2-1.3,0.2-2l0-0.1c2.5,0.8,4.7,0.9,7.2-0.4C45,6.2,47,4.9,48.2,4.6
	c1.1-0.4,2.6-0.2,3.3,0.8c0.6,0.9,0.1,2.1-0.6,2.9c-0.7,0.8-1.6,1.3-2.6,1.7c-0.2,0-0.3,0-0.5,0c-0.3,0-0.6,0-0.8,0.1
	c-0.8-0.1-1.5-0.1-2.1,0.1c-1.3,0.3-2.5,1-3.1,2.1c-0.7,1.1-0.7,2.6,0,3.7c0.7,1.2,2.2,1.7,3.6,1.6c1.4-0.1,2.6-0.9,3.6-1.8
	c0.3-0.3,0.6-0.6,0.8-1c0.2-0.3,0.3-0.7,0.3-1.1c0,0,0,0,0,0c0.2,0,0.3-0.2,0.4-0.4c0-0.2,0-0.4-0.1-0.5l0-0.4
	c1.2-1.1,2.5-2.2,3.3-3.6C54.5,7.1,54.7,5.2,53.8,3.9z"/>
</svg>
