<?xml version="1.0" encoding="utf-8"?>
<!-- Generator: Adobe Illustrator 24.2.0, SVG Export Plug-In . SVG Version: 6.00 Build 0)  -->
<svg version="1.1" id="Layer_1" xmlns="http://www.w3.org/2000/svg" xmlns:xlink="http://www.w3.org/1999/xlink" x="0px" y="0px"
	 viewBox="0 0 26.6 34" style="enable-background:new 0 0 26.6 34;" xml:space="preserve">
<style type="text/css">
	.st0{fill:#FFFFFF;}
</style>
<path class="st0" d="M13.3,0C13.3,0,0,11,0,20.7C0,28.1,6,34,13.3,34c7.3,0,13.3-6,13.3-13.3C26.6,10,13.3,0,13.3,0z M19.9,27.1
	c-1.4,1.3-3.9,2.6-5.9,2.8C13.4,30,12.8,30,12.2,30c-0.6,0-1-0.5-1-1c0-0.6,0.5-1,1-1c2.2,0.1,4.8-1,6.2-2.3
	c2.9-2.9,1.8-7.5,1.8-7.5c0-0.6,0.4-1,1-1c0.6,0,1,0.4,1,1C22.3,18.4,23.4,23.7,19.9,27.1z"/>
</svg>
