<?xml version="1.0" encoding="utf-8"?>
<!-- Generator: Adobe Illustrator 24.2.0, SVG Export Plug-In . SVG Version: 6.00 Build 0)  -->
<svg version="1.1" id="Layer_1" xmlns="http://www.w3.org/2000/svg" xmlns:xlink="http://www.w3.org/1999/xlink" x="0px" y="0px"
	 viewBox="0 0 49.4 49.4" style="enable-background:new 0 0 49.4 49.4;" xml:space="preserve">
<style type="text/css">
	.st0{fill:#FFFFFF;}
</style>
<g>
	<g>
		<circle class="st0" cx="24.7" cy="22" r="9.3"/>
		<path class="st0" d="M47.5,15.1c-1.2-2.9-3-5.6-5.3-7.9c-2.3-2.3-4.9-4.1-7.9-5.3c-3-1.3-6.3-1.9-9.6-1.9c-3.3,0-6.6,0.7-9.6,1.9
			c-2.9,1.2-5.6,3-7.9,5.3s-4.1,4.9-5.3,7.9c-1.3,3-1.9,6.3-1.9,9.6s0.7,6.6,1.9,9.6c1.2,2.9,3,5.6,5.3,7.9c2.3,2.3,4.9,4.1,7.9,5.3
			c3,1.3,6.3,1.9,9.6,1.9c3.3,0,6.6-0.7,9.6-1.9c2.9-1.2,5.6-3,7.9-5.3c2.3-2.3,4.1-4.9,5.3-7.9c1.3-3,1.9-6.3,1.9-9.6
			S48.8,18.1,47.5,15.1z M40.8,40.8c-0.5,0.5-1,1-1.5,1.4c-2.6-5.4-8.1-9.1-14.5-9.1s-11.9,3.7-14.5,9.1c-0.5-0.4-1-0.9-1.5-1.4
			c-4.3-4.3-6.6-10-6.6-16S4.4,13,8.7,8.7C13,4.4,18.7,2,24.7,2s11.8,2.4,16,6.6c4.3,4.3,6.6,10,6.6,16S45,36.5,40.8,40.8z"/>
	</g>
</g>
</svg>
