<?xml version="1.0" encoding="utf-8"?>
<!-- Generator: Adobe Illustrator 24.2.0, SVG Export Plug-In . SVG Version: 6.00 Build 0)  -->
<svg version="1.1" id="Layer_1" xmlns="http://www.w3.org/2000/svg" xmlns:xlink="http://www.w3.org/1999/xlink" x="0px" y="0px"
	 viewBox="0 0 105.5 105.5" style="enable-background:new 0 0 105.5 105.5;" xml:space="preserve">
<style type="text/css">
	.st0{fill:#4797D2;}
</style>
<g>
	<circle class="st0" cx="52.8" cy="46.9" r="19.9"/>
	<path class="st0" d="M101.4,32.2c-2.7-6.3-6.5-11.9-11.3-16.8c-4.8-4.8-10.5-8.6-16.8-11.3C66.8,1.4,59.9,0,52.8,0
		c-7.1,0-14,1.4-20.5,4.1c-6.3,2.7-11.9,6.5-16.8,11.3S6.8,25.9,4.1,32.2C1.4,38.7,0,45.6,0,52.8s1.4,14,4.1,20.5
		c2.7,6.3,6.5,11.9,11.3,16.8s10.5,8.6,16.8,11.3c6.5,2.8,13.4,4.1,20.5,4.1c7.1,0,14-1.4,20.5-4.1c6.3-2.7,11.9-6.5,16.8-11.3
		c4.8-4.8,8.6-10.5,11.3-16.8c2.8-6.5,4.1-13.4,4.1-20.5S104.1,38.7,101.4,32.2z M87,87c-1.1,1.1-2.1,2-3.3,3
		c-5.5-11.5-17.3-19.5-30.9-19.5s-25.4,8-30.9,19.5c-1.1-0.9-2.2-1.9-3.3-3C9.4,77.8,4.4,65.7,4.4,52.8s5-25.1,14.2-34.2
		C27.7,9.4,39.8,4.4,52.8,4.4s25.1,5,34.2,14.2c9.1,9.1,14.2,21.3,14.2,34.2S96.1,77.8,87,87z"/>
</g>
</svg>
